<svg xmlns="http://www.w3.org/2000/svg" viewBox="0 0 1600 1000" preserveAspectRatio="xMidYMid slice">
<defs><linearGradient id="g" x1="0" y1="0" x2="0" y2="1"><stop offset="0" stop-color="#bfe7f8"/><stop offset=".55" stop-color="#e9f6f4"/><stop offset=".56" stop-color="#f6e6b6"/><stop offset="1" stop-color="#f1d79a"/></linearGradient></defs>
<rect width="1600" height="1000" fill="url(#g)"/>
<circle cx="1330" cy="170" r="92" fill="#ffe08a"/><circle cx="1330" cy="170" r="130" fill="#ffe08a" opacity=".3"/>
<g transform="translate(260 170) scale(1.5)" fill="#fff" opacity="0.9"><ellipse cx="0" cy="0" rx="60" ry="22"/><ellipse cx="-26" cy="-16" rx="30" ry="22"/><ellipse cx="20" cy="-22" rx="36" ry="27"/></g><g transform="translate(820 110) scale(1.1)" fill="#fff" opacity="0.8"><ellipse cx="0" cy="0" rx="60" ry="22"/><ellipse cx="-26" cy="-16" rx="30" ry="22"/><ellipse cx="20" cy="-22" rx="36" ry="27"/></g><g transform="translate(1100 300) scale(0.9)" fill="#fff" opacity="0.7"><ellipse cx="0" cy="0" rx="60" ry="22"/><ellipse cx="-26" cy="-16" rx="30" ry="22"/><ellipse cx="20" cy="-22" rx="36" ry="27"/></g>
<path d="M0 560C200 500 420 530 640 520C900 508 1200 470 1600 530V1000H0Z" fill="#f3dfa8"/>
<path d="M0 640C260 600 520 660 820 630C1100 604 1360 620 1600 600V1000H0Z" fill="#f7e8bd"/>
<path d="M0 800C300 770 620 820 900 790C1180 762 1400 790 1600 780V1000H0Z" fill="#efd392" opacity=".8"/><path d="M32.1 794.1q2 -14 6 -16M40.1 794.1q0 -18 2 -22M48.1 794.1q-1 -12 -6 -16" fill="none" stroke="#6fb46a" stroke-width="3.4" stroke-linecap="round"/><path d="M505.70000000000005 673.5q2 -14 6 -16M513.7 673.5q0 -18 2 -22M521.7 673.5q-1 -12 -6 -16" fill="none" stroke="#6fb46a" stroke-width="3.4" stroke-linecap="round"/><path d="M1339.9 782.6q2 -14 6 -16M1347.9 782.6q0 -18 2 -22M1355.9 782.6q-1 -12 -6 -16" fill="none" stroke="#6fb46a" stroke-width="3.4" stroke-linecap="round"/><path d="M818.6 800.3q2 -14 6 -16M826.6 800.3q0 -18 2 -22M834.6 800.3q-1 -12 -6 -16" fill="none" stroke="#6fb46a" stroke-width="3.4" stroke-linecap="round"/><path d="M749.8 744.5q2 -14 6 -16M757.8 744.5q0 -18 2 -22M765.8 744.5q-1 -12 -6 -16" fill="none" stroke="#6fb46a" stroke-width="3.4" stroke-linecap="round"/><path d="M364.2 874.1q2 -14 6 -16M372.2 874.1q0 -18 2 -22M380.2 874.1q-1 -12 -6 -16" fill="none" stroke="#6fb46a" stroke-width="3.4" stroke-linecap="round"/><path d="M245.7 774.1q2 -14 6 -16M253.7 774.1q0 -18 2 -22M261.7 774.1q-1 -12 -6 -16" fill="none" stroke="#6fb46a" stroke-width="3.4" stroke-linecap="round"/><path d="M925.9 908q2 -14 6 -16M933.9 908q0 -18 2 -22M941.9 908q-1 -12 -6 -16" fill="none" stroke="#6fb46a" stroke-width="3.4" stroke-linecap="round"/><path d="M613.6 685.4q2 -14 6 -16M621.6 685.4q0 -18 2 -22M629.6 685.4q-1 -12 -6 -16" fill="none" stroke="#6fb46a" stroke-width="3.4" stroke-linecap="round"/><path d="M362.7 880.6q2 -14 6 -16M370.7 880.6q0 -18 2 -22M378.7 880.6q-1 -12 -6 -16" fill="none" stroke="#6fb46a" stroke-width="3.4" stroke-linecap="round"/><path d="M932.4 826.3q2 -14 6 -16M940.4 826.3q0 -18 2 -22M948.4 826.3q-1 -12 -6 -16" fill="none" stroke="#6fb46a" stroke-width="3.4" stroke-linecap="round"/><path d="M759.7 730.4q2 -14 6 -16M767.7 730.4q0 -18 2 -22M775.7 730.4q-1 -12 -6 -16" fill="none" stroke="#6fb46a" stroke-width="3.4" stroke-linecap="round"/><path d="M499.9 898.9q2 -14 6 -16M507.9 898.9q0 -18 2 -22M515.9 898.9q-1 -12 -6 -16" fill="none" stroke="#6fb46a" stroke-width="3.4" stroke-linecap="round"/><path d="M49.7 717.9q2 -14 6 -16M57.7 717.9q0 -18 2 -22M65.7 717.9q-1 -12 -6 -16" fill="none" stroke="#6fb46a" stroke-width="3.4" stroke-linecap="round"/><path transform="translate(915.5 868.2) rotate(5) scale(.9)" d="M0 0C-3-2-9-1-12-6C-9-8-8-10-9-15C-5-14-3-16 0-21C3-16 5-14 9-15C8-10 9-8 12-6C9-1 3-2 0 0Z" fill="#e39a3b"/><path transform="translate(624 923.8) rotate(188) scale(.9)" d="M0 0C-3-2-9-1-12-6C-9-8-8-10-9-15C-5-14-3-16 0-21C3-16 5-14 9-15C8-10 9-8 12-6C9-1 3-2 0 0Z" fill="#8fcf7a"/><path transform="translate(187.3 835.4) rotate(345) scale(.9)" d="M0 0C-3-2-9-1-12-6C-9-8-8-10-9-15C-5-14-3-16 0-21C3-16 5-14 9-15C8-10 9-8 12-6C9-1 3-2 0 0Z" fill="#e8c14a"/><path transform="translate(527.2 928.5) rotate(7) scale(.9)" d="M0 0C-3-2-9-1-12-6C-9-8-8-10-9-15C-5-14-3-16 0-21C3-16 5-14 9-15C8-10 9-8 12-6C9-1 3-2 0 0Z" fill="#6fb46a"/><path transform="translate(1130.5 898.6) rotate(342) scale(.9)" d="M0 0C-3-2-9-1-12-6C-9-8-8-10-9-15C-5-14-3-16 0-21C3-16 5-14 9-15C8-10 9-8 12-6C9-1 3-2 0 0Z" fill="#e39a3b"/><path transform="translate(476.1 693.3) rotate(288) scale(.9)" d="M0 0C-3-2-9-1-12-6C-9-8-8-10-9-15C-5-14-3-16 0-21C3-16 5-14 9-15C8-10 9-8 12-6C9-1 3-2 0 0Z" fill="#8fcf7a"/><path transform="translate(1480.9 874.2) rotate(360) scale(.9)" d="M0 0C-3-2-9-1-12-6C-9-8-8-10-9-15C-5-14-3-16 0-21C3-16 5-14 9-15C8-10 9-8 12-6C9-1 3-2 0 0Z" fill="#e8c14a"/><path transform="translate(1256.8 778.1) rotate(92) scale(.9)" d="M0 0C-3-2-9-1-12-6C-9-8-8-10-9-15C-5-14-3-16 0-21C3-16 5-14 9-15C8-10 9-8 12-6C9-1 3-2 0 0Z" fill="#6fb46a"/><path transform="translate(975.6 647.7) rotate(343) scale(.9)" d="M0 0C-3-2-9-1-12-6C-9-8-8-10-9-15C-5-14-3-16 0-21C3-16 5-14 9-15C8-10 9-8 12-6C9-1 3-2 0 0Z" fill="#e39a3b"/><path transform="translate(1304 752.5) rotate(315) scale(.9)" d="M0 0C-3-2-9-1-12-6C-9-8-8-10-9-15C-5-14-3-16 0-21C3-16 5-14 9-15C8-10 9-8 12-6C9-1 3-2 0 0Z" fill="#8fcf7a"/><path transform="translate(42 853.2) rotate(342) scale(.9)" d="M0 0C-3-2-9-1-12-6C-9-8-8-10-9-15C-5-14-3-16 0-21C3-16 5-14 9-15C8-10 9-8 12-6C9-1 3-2 0 0Z" fill="#e8c14a"/><path transform="translate(875.6 857.3) rotate(183) scale(.9)" d="M0 0C-3-2-9-1-12-6C-9-8-8-10-9-15C-5-14-3-16 0-21C3-16 5-14 9-15C8-10 9-8 12-6C9-1 3-2 0 0Z" fill="#6fb46a"/><path transform="translate(1336.7 778.8) rotate(334) scale(.9)" d="M0 0C-3-2-9-1-12-6C-9-8-8-10-9-15C-5-14-3-16 0-21C3-16 5-14 9-15C8-10 9-8 12-6C9-1 3-2 0 0Z" fill="#e39a3b"/><path transform="translate(1557.1 776.1) rotate(292) scale(.9)" d="M0 0C-3-2-9-1-12-6C-9-8-8-10-9-15C-5-14-3-16 0-21C3-16 5-14 9-15C8-10 9-8 12-6C9-1 3-2 0 0Z" fill="#8fcf7a"/><path transform="translate(811.8 712.2) rotate(17) scale(.9)" d="M0 0C-3-2-9-1-12-6C-9-8-8-10-9-15C-5-14-3-16 0-21C3-16 5-14 9-15C8-10 9-8 12-6C9-1 3-2 0 0Z" fill="#e8c14a"/><path transform="translate(119 904.7) rotate(39) scale(.9)" d="M0 0C-3-2-9-1-12-6C-9-8-8-10-9-15C-5-14-3-16 0-21C3-16 5-14 9-15C8-10 9-8 12-6C9-1 3-2 0 0Z" fill="#6fb46a"/><g transform="translate(120 640) scale(1.5)"><ellipse cx="0" cy="4" rx="34" ry="9" fill="#000" opacity=".1"/><rect x="-7" y="-46" width="14" height="50" rx="5" fill="#9a7446"/>
<g fill="#7cc86e" stroke="#4f9f52" stroke-width="3"><circle cx="-24" cy="-62" r="27"/><circle cx="24" cy="-62" r="27"/><circle cx="0" cy="-88" r="32"/></g>
<circle cx="-10" cy="-96" r="9" fill="#fff" opacity=".22"/></g><g transform="translate(1480 660) scale(1.4)"><ellipse cx="0" cy="4" rx="34" ry="9" fill="#000" opacity=".1"/><rect x="-7" y="-46" width="14" height="50" rx="5" fill="#9a7446"/>
<g fill="#f0a94a" stroke="#cf7f2c" stroke-width="3"><circle cx="-24" cy="-62" r="27"/><circle cx="24" cy="-62" r="27"/><circle cx="0" cy="-88" r="32"/></g>
<circle cx="-10" cy="-96" r="9" fill="#fff" opacity=".22"/></g><g transform="translate(1380 600) scale(1)"><ellipse cx="0" cy="4" rx="34" ry="9" fill="#000" opacity=".1"/><rect x="-7" y="-46" width="14" height="50" rx="5" fill="#9a7446"/>
<g fill="#f2cf5a" stroke="#d6a531" stroke-width="3"><circle cx="-24" cy="-62" r="27"/><circle cx="24" cy="-62" r="27"/><circle cx="0" cy="-88" r="32"/></g>
<circle cx="-10" cy="-96" r="9" fill="#fff" opacity=".22"/></g><g transform="translate(240 600) scale(1)"><ellipse cx="0" cy="4" rx="34" ry="9" fill="#000" opacity=".1"/><rect x="-7" y="-46" width="14" height="50" rx="5" fill="#9a7446"/>
<g fill="#96d47c" stroke="#5fae58" stroke-width="3"><circle cx="-24" cy="-62" r="27"/><circle cx="24" cy="-62" r="27"/><circle cx="0" cy="-88" r="32"/></g>
<circle cx="-10" cy="-96" r="9" fill="#fff" opacity=".22"/></g></svg>